# xmcd
#
# Track frame offsets:
# 150
# 18690
# 37241
# 52873
# 68018
# 88164
# 103749
# 117459
# 134568
# 150300
# 166273
# 179321
# 195842
# 215347
# 232882
# 252624
# 268305
#
# Disc length: 3807 seconds
#
#
# Revision: 0
# Processed by: cddbd v1.5.2PL0 Copyright (c) Steve Scherf et al.
# Submitted via: FreeRIP 2.945 
#
DISCID=f00edd11
DTITLE=varios - pop
DYEAR=1900
DGENRE=Pop
TTITLE0=Carla
TTITLE1=Cachorrinho
TTITLE2=ragatanga
TTITLE3=o calibre
TTITLE4=valeu esperar
TTITLE5=em cada amanhacer
TTITLE6=onde esta o meu amor
TTITLE7=nunca deixe de sonhar
TTITLE8=por perto
TTITLE9=cada segundo
TTITLE10=eptafio
TTITLE11=tanta saudade
TTITLE12=distancia
TTITLE13=que nem mare
TTITLE14=azul
TTITLE15=beijo molhado
TTITLE16=clima de rodeio
EXTD=
EXTT0=
EXTT1=
EXTT2=
EXTT3=
EXTT4=
EXTT5=
EXTT6=
EXTT7=
EXTT8=
EXTT9=
EXTT10=
EXTT11=
EXTT12=
EXTT13=
EXTT14=
EXTT15=
EXTT16=
PLAYORDER=
